HIERARCHY
ROOT Hips
{
	OFFSET 0.000000 0.000000 0.000000
	CHANNELS 6 Xposition Yposition Zposition Zrotation Yrotation Xrotation 
	JOINT LHipJoint
	{
		OFFSET 0.000000 0.000000 0.000000
		CHANNELS 3 Zrotation Yrotation Xrotation
		JOINT LeftUpLeg
		{
			OFFSET 1.363060 -1.794630 0.839290
			CHANNELS 3 Zrotation Yrotation Xrotation
			JOINT LeftLeg
			{
				OFFSET 2.448110 -6.726130 0.000000
				CHANNELS 3 Zrotation Yrotation Xrotation
				JOINT LeftFoot
				{
					OFFSET 2.562200 -7.039590 0.000000
					CHANNELS 3 Zrotation Yrotation Xrotation
					JOINT LeftToeBase
					{
						OFFSET 0.157640 -0.433110 2.322550
						CHANNELS 3 Zrotation Yrotation Xrotation
						End Site
						{
							OFFSET 0.000000 0.000000 0.000000
						}
					}
				}
			}
		}
	}
	JOINT RHipJoint
	{
		OFFSET 0.000000 0.000000 0.000000
		CHANNELS 3 Zrotation Yrotation Xrotation
		JOINT RightUpLeg
		{
			OFFSET -1.305520 -1.794630 0.839290
			CHANNELS 3 Zrotation Yrotation Xrotation
			JOINT RightLeg
			{
				OFFSET -2.542530 -6.985550 0.000000
				CHANNELS 3 Zrotation Yrotation Xrotation
				JOINT RightFoot
				{
					OFFSET -2.568260 -7.056230 0.000000
					CHANNELS 3 Zrotation Yrotation Xrotation
					JOINT RightToeBase
					{
						OFFSET -0.164730 -0.452590 2.363150
						CHANNELS 3 Zrotation Yrotation Xrotation
						End Site
						{
							OFFSET 0.000000 0.000000 0.000000
						}
					}
				}
			}
		}
	}
	JOINT LowerBack
	{
		OFFSET 0.000000 0.000000 0.000000
		CHANNELS 3 Zrotation Yrotation Xrotation
		JOINT Spine
		{
			OFFSET 0.028270 2.035590 -0.193380
			CHANNELS 3 Zrotation Yrotation Xrotation
			JOINT Spine1
			{
				OFFSET 0.056720 2.048850 -0.042750
				CHANNELS 3 Zrotation Yrotation Xrotation
				JOINT Neck
				{
					OFFSET 0.000000 0.000000 0.000000
					CHANNELS 3 Zrotation Yrotation Xrotation
					JOINT Neck1
					{
						OFFSET -0.054170 1.746240 0.172020
						CHANNELS 3 Zrotation Yrotation Xrotation
						JOINT Head
						{
							OFFSET 0.104070 1.761360 -0.123970
							CHANNELS 3 Zrotation Yrotation Xrotation
							End Site
							{
								OFFSET 0.000000 0.000000 0.000000
							}
						}
					}
				}
				JOINT LeftShoulder
				{
					OFFSET 0.000000 0.000000 0.000000
					CHANNELS 3 Zrotation Yrotation Xrotation
					JOINT LeftArm
					{
						OFFSET 3.362410 1.200890 -0.311210
						CHANNELS 3 Zrotation Yrotation Xrotation
						JOINT LeftForeArm
						{
							OFFSET 4.983000 -0.000000 -0.000000
							CHANNELS 3 Zrotation Yrotation Xrotation
							JOINT LeftHand
							{
								OFFSET 3.483560 -0.000000 -0.000000
								CHANNELS 3 Zrotation Yrotation Xrotation
								JOINT LeftFingerBase
								{
									OFFSET 0.000000 0.000000 0.000000
									CHANNELS 3 Zrotation Yrotation Xrotation
									JOINT LeftHandIndex1
									{
										OFFSET 0.715260 -0.000000 -0.000000
										CHANNELS 3 Zrotation Yrotation Xrotation
										End Site
										{
											OFFSET 0.000000 0.000000 0.000000
										}
									}
								}
								JOINT LThumb
								{
									OFFSET 0.000000 0.000000 0.000000
									CHANNELS 3 Zrotation Yrotation Xrotation
									End Site
									{
										OFFSET 0.000000 0.000000 0.000000
									}
								}
							}
						}
					}
				}
				JOINT RightShoulder
				{
					OFFSET 0.000000 0.000000 0.000000
					CHANNELS 3 Zrotation Yrotation Xrotation
					JOINT RightArm
					{
						OFFSET -3.136600 1.374050 -0.404650
						CHANNELS 3 Zrotation Yrotation Xrotation
						JOINT RightForeArm
						{
							OFFSET -5.241900 -0.000000 -0.000000
							CHANNELS 3 Zrotation Yrotation Xrotation
							JOINT RightHand
							{
								OFFSET -3.444170 -0.000000 -0.000000
								CHANNELS 3 Zrotation Yrotation Xrotation
								JOINT RightFingerBase
								{
									OFFSET 0.000000 0.000000 0.000000
									CHANNELS 3 Zrotation Yrotation Xrotation
									JOINT RightHandIndex1
									{
										OFFSET -0.622530 -0.000000 -0.000000
										CHANNELS 3 Zrotation Yrotation Xrotation
										End Site
										{
											OFFSET 0.000000 0.000000 0.000000
										}
									}
								}
								JOINT RThumb
								{
									OFFSET 0.000000 0.000000 0.000000
									CHANNELS 3 Zrotation Yrotation Xrotation
									End Site
									{
										OFFSET 0.000000 0.000000 0.000000
									}
								}
							}
						}
					}
				}
			}
		}
	}
}
MOTION
Frames: 7
Frame Time: 0.008333
-14.388374 16.702360 2.234016 123.496504 -80.182521 -120.301924 -5.324590 -2.770346 0.126746 -19.592570 -0.103645 -26.806371 5.588048 14.848645 48.022629 2.066925 -24.200581 2.242620 0.035200 -1.210400 -3.327900 0.846687 -0.300855 -0.321265 -5.437218 15.672385 -25.460622 -7.584344 -17.149895 53.035367 1.742352 -10.012773 -14.158916 -1.153700 6.819700 -19.182200 6.869608 -0.374942 17.607487 1.000877 0.695087 2.321201 -4.536309 0.403177 -3.903014 -7.856253 -5.813408 1.798090 2.900556 -8.774019 13.520870 0.427500 -4.150700 0.753000 -0.757083 -7.068541 2.278634 -85.930722 21.582181 1.216084 35.618877 -41.400809 -15.521915 0.035155 0.179088 6.687555 26.900275 2.947984 1.390700 -7.125000 0.000000 0.000000 0.234800 33.056000 -0.068700 5.362541 6.827773 2.024323 60.995733 -0.002376 26.454156 -21.324735 29.111806 -7.256655 2.459146 0.237252 30.828938 -34.910165 -29.672406 20.939400 7.125000 0.000000 0.000000 3.377200 23.580200 178.252900 
-14.453344 16.689691 2.192966 121.949359 -80.164726 -119.739945 -5.383274 -2.617205 0.291583 -19.659275 -0.072334 -25.592467 5.592804 14.843271 48.031549 2.066784 -24.249775 2.077872 0.022600 -0.970400 -2.667300 0.914969 -0.397661 -0.256115 -5.187904 15.485255 -24.315457 -7.647212 -17.159297 53.297896 1.741347 -10.079363 -14.470404 -1.257600 7.109200 -20.039200 6.168544 -0.755448 17.445005 0.976297 0.050509 2.386430 -4.054185 0.105797 -3.920159 -8.917683 -6.560300 3.058942 3.262640 -10.090924 11.851391 0.855800 -4.826500 0.044400 -0.783767 -7.149489 2.288821 -86.704512 21.783499 0.224773 34.231919 -40.430491 -14.523945 0.010968 0.197220 6.509342 27.043990 3.105500 1.472000 -7.125000 0.000000 0.000000 0.370300 33.217000 -0.106900 5.338291 6.676067 1.966844 61.697231 -0.833460 27.044960 -21.185014 28.994310 -7.175982 2.473248 0.271489 30.622624 -34.886556 -30.028494 21.136200 7.125000 0.000000 0.000000 3.251500 23.169700 178.287400 
-14.516185 16.676717 2.143909 120.357375 -80.206817 -119.152978 -5.434784 -2.457332 0.439298 -19.675767 -0.120044 -24.325091 5.621298 14.856057 48.069380 2.133148 -24.103485 1.367661 0.046400 -1.390800 -3.824800 0.977691 -0.496153 -0.191974 -4.857196 15.131900 -23.153776 -7.707492 -17.169686 53.565803 1.670537 -9.939254 -14.810885 -1.282400 7.176100 -20.238200 5.428461 -1.093809 17.077393 0.961770 -0.568908 2.633657 -3.544317 -0.166383 -3.486216 -9.867913 -7.385641 4.297550 3.718167 -11.540468 9.903302 1.355000 -5.545000 -0.762000 -0.824036 -7.226625 2.298791 -87.374587 21.551988 -0.632575 32.814593 -39.392568 -13.525694 -0.017404 0.212321 6.257716 27.112448 3.326036 1.583600 -7.125000 0.000000 0.000000 0.446600 33.451100 -0.126400 5.333788 6.527562 1.926622 62.307053 -1.344383 27.493248 -21.008130 28.830355 -7.075550 2.489808 0.296790 30.338564 -35.013476 -30.224581 21.348600 7.125000 0.000000 0.000000 3.268600 22.894800 178.257800 
-14.573047 16.662527 2.091609 118.560615 -80.466281 -118.339217 -5.469834 -2.284590 0.567471 -19.527563 -0.402539 -23.008130 5.661079 14.881526 48.160226 2.190904 -23.871893 0.757321 0.048100 -1.415000 -3.891500 1.041573 -0.593375 -0.117938 -4.344900 14.474895 -22.073725 -7.764206 -17.181763 53.841412 1.579836 -9.736339 -15.121795 -1.282700 7.177000 -20.240900 4.896699 -1.507620 16.622983 0.965426 -1.252746 2.957294 -3.122755 -0.473914 -2.839006 -10.696045 -8.306864 5.105984 4.206351 -13.059493 8.142877 1.850500 -6.283700 -1.415100 -0.863012 -7.282074 2.296635 -88.130841 21.154355 -1.521197 31.538868 -38.407738 -12.636470 -0.043456 0.219641 6.042144 26.869527 3.633371 1.721700 -7.125000 0.000000 0.000000 0.263200 33.782600 -0.072400 5.342252 6.411833 1.896970 62.812669 -1.634764 28.061646 -20.833103 28.654393 -6.968528 2.495346 0.320890 29.846878 -35.034777 -30.192021 21.352900 7.125000 0.000000 0.000000 3.292100 22.914400 178.246700 
-14.622712 16.646310 2.031504 117.267605 -80.813037 -118.008491 -5.499408 -2.113516 0.699608 -19.233232 -0.650239 -21.769693 5.715941 14.917898 48.291405 2.261604 -23.582703 0.120193 0.049000 -1.428200 -3.927900 1.095308 -0.686986 -0.039567 -3.691299 13.710675 -21.137646 -7.826880 -17.202263 54.146767 1.506833 -9.570459 -15.335254 -1.316800 7.268000 -20.511900 4.406053 -1.907368 16.407386 0.980057 -1.883183 3.156401 -2.720904 -0.773588 -2.513974 -11.502020 -9.203560 5.787121 4.742581 -14.529967 6.775185 2.348400 -6.996600 -1.871200 -0.892797 -7.326784 2.285759 -88.837208 21.015862 -2.195724 30.191384 -37.316623 -11.725143 -0.067481 0.235364 5.990876 26.836215 3.753842 1.774200 -7.125000 0.000000 0.000000 0.254300 33.899800 -0.069300 5.343156 6.310706 1.854241 63.393410 -2.140516 28.742245 -20.658291 28.471682 -6.857238 2.492659 0.345635 29.414161 -34.867140 -30.146354 21.213000 7.125000 0.000000 0.000000 3.203100 23.009700 178.301200 
-14.664066 16.637796 1.958831 118.813312 -81.468676 -120.415507 -5.565439 -1.961069 0.838877 -18.282070 -0.722925 -20.735061 5.790204 14.968182 48.427250 2.400207 -23.223672 -0.656037 0.089800 -1.933100 -5.320800 1.136340 -0.768208 0.020234 -2.453890 13.129340 -20.394429 -7.873467 -17.222413 54.485693 1.416095 -9.360914 -15.543393 -1.321500 7.280600 -20.549300 4.182339 -2.217581 16.335812 1.099505 -2.335172 3.288642 -2.326760 -1.002504 -2.358630 -12.131286 -10.056268 6.452991 5.168659 -15.905933 5.617960 2.770300 -7.656100 -2.255400 -0.906635 -7.363726 2.271313 -89.442205 20.933444 -2.590600 28.733117 -36.076070 -10.765690 -0.091567 0.254849 6.164536 26.748500 3.869066 1.818000 -7.125000 0.000000 0.000000 0.202200 34.005100 -0.054500 5.358794 6.225050 1.811107 63.985945 -2.694389 29.369562 -20.450436 28.242614 -6.726392 2.484130 0.352496 29.208001 -34.644876 -29.962859 20.953400 7.125000 0.000000 0.000000 3.122700 23.282000 178.363500 
-14.701568 16.629788 1.887374 118.720826 -82.063931 -121.066877 -5.588137 -1.803307 0.944467 -17.596293 -1.165420 -19.679937 5.849166 15.006550 48.550284 2.491030 -22.937589 -1.261154 0.093200 -1.968800 -5.419300 1.162171 -0.829500 0.077262 -1.529733 12.048636 -19.939149 -7.964733 -17.268474 54.878736 1.250029 -8.850646 -15.530713 -1.317500 7.269900 -20.517500 3.823839 -2.598220 16.156365 1.175246 -2.902479 3.444438 -1.913247 -1.287425 -2.069114 -12.672879 -10.861051 6.727723 5.631352 -17.147192 4.719570 3.136500 -8.255000 -2.462100 -0.924727 -7.390604 2.246526 -90.064681 20.658025 -2.966759 27.373443 -34.851211 -9.881247 -0.105383 0.264611 6.553940 26.048679 3.974512 1.812800 -7.125000 0.000000 0.000000 -0.362200 34.090800 0.096900 5.373199 6.165807 1.775855 64.514484 -3.046553 29.945974 -20.275547 28.037187 -6.613910 2.473326 0.345242 29.214173 -34.452713 -29.734686 20.687700 7.125000 0.000000 0.000000 3.073200 23.600000 178.412000 
